<svg height="511pt" viewBox="0 0 511.99967 511" width="511pt" xmlns="http://www.w3.org/2000/svg"><path d="m105.003906 450.496094h-15v-209.996094h44.996094c8.285156 0 15-6.71875 15-15 0-8.285156-6.714844-15-15-15h-44.996094v-40.789062l41.359375 10.339843c1.222657.304688 2.445313.453125 3.648438.453125 6.722656 0 12.839843-4.550781 14.542969-11.367187 2.007812-8.035157-2.878907-16.179688-10.914063-18.1875l-48.636719-12.160157v-33.289062c0-8.285156-6.71875-15-15-15-8.285156 0-15 6.714844-15 15v25.789062l-41.363281-10.34375c-8.023437-2.003906-16.179687 2.878907-18.1875 10.914063-2.011719 8.039063 2.875 16.183594 10.914063 18.191406l48.636718 12.160157v48.285156h-45c-8.285156 0-14.99999975 6.71875-14.99999975 15 0 8.285156 6.71484375 15 14.99999975 15h45v210h-15c-8.285156 0-15 6.714844-15 15s6.714844 15 15 15h60c8.28125 0 15-6.714844 15-15s-6.71875-15-15-15zm0 0"/><path d="m497 160.5h-55v-30.65625c36.792969-3.21875 70-18.3125 70-44.34375 0-26.035156-33.207031-41.128906-70-44.34375v-15.65625c0-8.285156-6.714844-15-15-15s-15 6.714844-15 15v15.65625c-36.792969 3.21875-70 18.308594-70 44.34375 0 26.03125 33.207031 41.125 70 44.34375v30.65625h-55c-8.285156 0-15 6.714844-15 15v60c0 8.28125 6.714844 15 15 15h55v199.996094h-15c-8.285156 0-15 6.71875-15 15 0 8.285156 6.714844 15 15 15h60c8.285156 0 15-6.714844 15-15 0-8.28125-6.714844-15-15-15h-15v-199.996094h55c8.285156 0 15-6.71875 15-15v-60c0-8.285156-6.714844-15-15-15zm0 0"/><path d="m251 252.5c-68.921875 0-125 56.074219-125 124.996094 0 33.980468 13.636719 64.832031 35.714844 87.382812l-17.714844 23.617188c-4.96875 6.628906-3.625 16.03125 3 21 2.699219 2.023437 5.859375 3 8.988281 3 4.5625 0 9.066407-2.070313 12.011719-6l17.117188-22.820313c19.140624 11.921875 41.722656 18.820313 65.882812 18.820313 24.164062 0 46.742188-6.898438 65.886719-18.820313l17.113281 22.820313c2.949219 3.929687 7.453125 6 12.011719 6 3.132812 0 6.289062-.976563 8.988281-3 6.628906-4.96875 7.972656-14.371094 3-21l-17.710938-23.617188c22.078126-22.550781 35.710938-53.402344 35.710938-87.382812 0-68.921875-56.074219-124.996094-125-124.996094zm0 0"/><path d="m252.140625 224.679688c2.921875 3.777343 7.347656 5.820312 11.867187 5.820312 2.324219 0 4.671876-.539062 6.855469-1.664062 6.429688-3.304688 9.582031-10.726563 7.503907-17.648438l-24.203126-80.6875h34.839844c5.417969 0 10.414063-2.921875 13.070313-7.644531 2.65625-4.722657 2.5625-10.511719-.25-15.140625l-60.714844-100c-2.71875-4.480469-7.578125-7.214844-12.820313-7.214844h-60.757812c-5.378906 0-10.347656 2.882812-13.019531 7.554688-2.671875 4.667968-2.636719 10.414062.089843 15.050781l13.175782 22.394531h-23.773438c-5.722656 0-10.949218 3.257812-13.46875 8.394531-2.519531 5.140625-1.894531 11.265625 1.605469 15.789063zm0 0"/></svg>