<?xml version="1.0" encoding="iso-8859-1"?>
<!-- Generator: Adobe Illustrator 19.0.0, SVG Export Plug-In . SVG Version: 6.00 Build 0)  -->
<svg version="1.1" id="Capa_1" xmlns="http://www.w3.org/2000/svg" xmlns:xlink="http://www.w3.org/1999/xlink" x="0px" y="0px"
	 viewBox="0 0 511.999 511.999" style="enable-background:new 0 0 511.999 511.999;" xml:space="preserve">
<g>
	<g>
		<g>
			<rect x="379.67" y="245.27" width="0.001" height="0.001"/>
			<path d="M511.5,421.331l-20.988-182.924c-3.493-50.017-45.429-89.14-95.64-89.14c-27.837,0-53.602,11.702-71.804,32.359H271
				V69.327c0-15.255,12.411-27.668,27.668-27.668c15.255,0,27.667,12.411,27.667,27.668v37.396h68.336V76.722h-38.335v-7.395
				c0-31.799-25.87-57.669-57.668-57.669s-57.669,25.87-57.669,57.669v112.299h-52.069c-18.203-20.657-43.967-32.359-71.804-32.359
				c-50.211,0-92.147,39.123-95.64,89.14L0.504,421.297c-2.408,20.038,3.892,40.188,17.285,55.287
				c13.392,15.099,32.648,23.758,52.831,23.758h43.909l55.004-117.337h172.936l55.004,117.337h43.909
				c20.182,0,39.438-8.659,52.831-23.757C507.596,461.494,513.897,441.358,511.5,421.331z M159.996,275.271h-27.668v27.668h-30
				v-27.668H74.66V245.27h27.667v-27.668h30.001v27.668h27.668V275.271z M279.5,329.669h-47.001v-30.001H279.5V329.669z
				 M437.338,275.271h-27.667v27.668h-30.001v-27.668h-27.668V245.27h27.667v-27.667h30.001v27.668h-30v30h30.001V245.27h27.667
				V275.271z"/>
		</g>
	</g>
</g>
<g>
</g>
<g>
</g>
<g>
</g>
<g>
</g>
<g>
</g>
<g>
</g>
<g>
</g>
<g>
</g>
<g>
</g>
<g>
</g>
<g>
</g>
<g>
</g>
<g>
</g>
<g>
</g>
<g>
</g>
</svg>
