<?xml version="1.0" encoding="iso-8859-1"?>
<!-- Generator: Adobe Illustrator 17.1.0, SVG Export Plug-In . SVG Version: 6.00 Build 0)  -->
<!DOCTYPE svg PUBLIC "-//W3C//DTD SVG 1.1//EN" "http://www.w3.org/Graphics/SVG/1.1/DTD/svg11.dtd">
<svg version="1.1" id="Capa_1" xmlns="http://www.w3.org/2000/svg" xmlns:xlink="http://www.w3.org/1999/xlink" x="0px" y="0px"
	 viewBox="0 0 281 281" style="enable-background:new 0 0 281 281;" xml:space="preserve">
<path d="M268.674,154.5l-49.5-66c-4.467-5.303-11.018-7.423-14.306-8.953c-17.091-7.956-34.817-11.623-53.62-13.079l-27.851-37.135
	c-0.963-1.763-2.456-3.257-4.4-4.2l-3.319-1.61C101.488,16.639,85.652,13,69.881,13H57.674c-5.522,0-10,4.478-10,10s4.478,10,10,10
	h12.207c5.978,0,11.966,0.654,17.825,1.913L72.144,45.172c-6.916,4.559-8.827,13.862-4.268,20.779
	c1.065,1.616,2.392,2.954,3.884,4.005c-0.092,0.249-0.179,0.499-0.291,0.743c-1.341,2.929-3.9,5.063-7.021,5.855l-20.264,5.144
	c-3.483,0.884-6.061,3.5-7.069,6.692L10.916,72.92C7.704,78.358,9.51,85.37,14.948,88.581l118.256,69.829
	c0.573,0.339,1.167,0.609,1.769,0.838c-0.725,0.315-1.47,0.593-2.251,0.792l-29.239,7.422c-5.178,1.314-9.023,5.181-10.564,9.912
	l-37.3-22.025l0,0c-4.633,7.847-2.029,17.964,5.818,22.597l170.639,100.76c7.847,4.634,17.964,2.029,22.597-5.818l-53.591-31.645
	c1.277-1.494,2.281-3.265,2.905-5.26c10.458-33.396,2.911-69.319-19.621-95.571l24.16-16.107l36.146,48.195
	c2.947,3.93,7.451,6.001,12.012,6.001c3.132,0,6.29-0.978,8.988-3.001C272.301,170.529,273.645,161.127,268.674,154.5z
	 M108.631,75.766c-2.403-4.576-5.338-8.915-8.78-12.927l15.843-10.444L125.898,66h-3.224C116.234,66,110.757,70.067,108.631,75.766z
	 M69.368,95.939c8.262-2.098,15.159-7.447,19.236-14.834c7.827,12.044,10.067,27.019,5.808,41.118l-38.66-22.828L69.368,95.939z
	 M111.378,132.242c0.873-1.007,1.559-2.205,1.983-3.559c3.598-11.492,4.1-23.417,1.772-34.731c2.217,1.294,4.788,2.048,7.541,2.048
	h16.89c8.752,0,17.506,0.963,26.068,2.82l-22.438,14.958c-10.34,6.894-13.134,20.863-6.241,31.202
	c1.348,2.022,2.967,3.754,4.776,5.183L111.378,132.242z M121.015,193.963l19.089-4.845c11.765-2.986,21.638-10.485,27.648-20.854
	c10.769,17.064,13.792,38.093,7.842,57.927L121.015,193.963z M219.174,66.75c0-13.669,11.081-24.75,24.75-24.75
	s24.75,11.081,24.75,24.75s-11.081,24.75-24.75,24.75S219.174,80.419,219.174,66.75z M125.342,17.152
	C125.342,7.679,133.021,0,142.494,0c9.473,0,17.152,7.679,17.152,17.152c0,9.473-7.679,17.152-17.152,17.152
	C133.021,34.305,125.342,26.625,125.342,17.152z"/>
<g>
</g>
<g>
</g>
<g>
</g>
<g>
</g>
<g>
</g>
<g>
</g>
<g>
</g>
<g>
</g>
<g>
</g>
<g>
</g>
<g>
</g>
<g>
</g>
<g>
</g>
<g>
</g>
<g>
</g>
</svg>
